<mxfile host="65bd71144e">
    <diagram id="soQFIZq7KEO_Sn6n5ZgX" name="device hierarchy">
        <mxGraphModel dx="1562" dy="731" grid="1" gridSize="10" guides="1" tooltips="1" connect="1" arrows="1" fold="1" page="1" pageScale="1" pageWidth="827" pageHeight="1169" math="0" shadow="0">
            <root>
                <mxCell id="0"/>
                <mxCell id="1" parent="0"/>
                <mxCell id="PUVHWLvWs5wMUMgaZp93-8" value="" style="rounded=0;whiteSpace=wrap;html=1;strokeColor=none;fillColor=#f8cecc;opacity=30;" parent="1" vertex="1">
                    <mxGeometry x="80" y="720" width="560" height="240" as="geometry"/>
                </mxCell>
                <mxCell id="g-8kqiGf2P7mFbfdL2sW-30" value="" style="rounded=0;whiteSpace=wrap;html=1;strokeColor=none;fillColor=#f8cecc;opacity=30;" parent="1" vertex="1">
                    <mxGeometry x="80" y="720" width="560" height="120" as="geometry"/>
                </mxCell>
                <mxCell id="PUVHWLvWs5wMUMgaZp93-10" value="" style="rounded=0;whiteSpace=wrap;html=1;strokeColor=none;fillColor=#dae8fc;opacity=30;" parent="1" vertex="1">
                    <mxGeometry x="80" y="360" width="560" height="360" as="geometry"/>
                </mxCell>
                <mxCell id="g-8kqiGf2P7mFbfdL2sW-28" value="" style="rounded=0;whiteSpace=wrap;html=1;strokeColor=none;fillColor=#dae8fc;opacity=30;" parent="1" vertex="1">
                    <mxGeometry x="80" y="480" width="560" height="240" as="geometry"/>
                </mxCell>
                <mxCell id="g-8kqiGf2P7mFbfdL2sW-27" value="" style="rounded=0;whiteSpace=wrap;html=1;strokeColor=none;fillColor=#dae8fc;opacity=30;" parent="1" vertex="1">
                    <mxGeometry x="80" y="600" width="560" height="120" as="geometry"/>
                </mxCell>
                <mxCell id="PUVHWLvWs5wMUMgaZp93-1" value="SihasBase" style="rounded=0;whiteSpace=wrap;html=1;" parent="1" vertex="1">
                    <mxGeometry x="360" y="390" width="120" height="60" as="geometry"/>
                </mxCell>
                <mxCell id="PUVHWLvWs5wMUMgaZp93-5" style="edgeStyle=none;rounded=0;orthogonalLoop=1;jettySize=auto;html=1;endArrow=block;endFill=0;" parent="1" source="PUVHWLvWs5wMUMgaZp93-2" target="PUVHWLvWs5wMUMgaZp93-1" edge="1">
                    <mxGeometry relative="1" as="geometry"/>
                </mxCell>
                <mxCell id="PUVHWLvWs5wMUMgaZp93-2" value="SihasProxy" style="rounded=0;whiteSpace=wrap;html=1;" parent="1" vertex="1">
                    <mxGeometry x="440" y="510" width="120" height="60" as="geometry"/>
                </mxCell>
                <mxCell id="PUVHWLvWs5wMUMgaZp93-13" style="edgeStyle=none;rounded=0;orthogonalLoop=1;jettySize=auto;html=1;endArrow=block;endFill=0;" parent="1" source="PUVHWLvWs5wMUMgaZp93-3" target="PUVHWLvWs5wMUMgaZp93-12" edge="1">
                    <mxGeometry relative="1" as="geometry"/>
                </mxCell>
                <mxCell id="PUVHWLvWs5wMUMgaZp93-3" value="Acm300, Ccm300..." style="rounded=0;whiteSpace=wrap;html=1;" parent="1" vertex="1">
                    <mxGeometry x="280" y="870" width="120" height="60" as="geometry"/>
                </mxCell>
                <mxCell id="PUVHWLvWs5wMUMgaZp93-6" value="Stm300, Aqm300..." style="rounded=0;whiteSpace=wrap;html=1;" parent="1" vertex="1">
                    <mxGeometry x="440" y="630" width="120" height="60" as="geometry"/>
                </mxCell>
                <mxCell id="PUVHWLvWs5wMUMgaZp93-11" value="&lt;font face=&quot;Helvetica&quot;&gt;Communicate to devices,&lt;/font&gt;&lt;br&gt;&lt;font face=&quot;Helvetica&quot;&gt;Provide &lt;/font&gt;poll&lt;font face=&quot;Helvetica&quot;&gt;, &lt;/font&gt;command" style="text;html=1;strokeColor=none;fillColor=none;align=center;verticalAlign=middle;whiteSpace=wrap;rounded=0;fontFamily=Cascadia Code;" parent="1" vertex="1">
                    <mxGeometry x="80" y="360" width="160" height="120" as="geometry"/>
                </mxCell>
                <mxCell id="PUVHWLvWs5wMUMgaZp93-14" style="edgeStyle=none;rounded=0;orthogonalLoop=1;jettySize=auto;html=1;endArrow=block;endFill=0;" parent="1" source="PUVHWLvWs5wMUMgaZp93-12" target="PUVHWLvWs5wMUMgaZp93-1" edge="1">
                    <mxGeometry relative="1" as="geometry"/>
                </mxCell>
                <mxCell id="PUVHWLvWs5wMUMgaZp93-12" value="SihasEntity" style="rounded=0;whiteSpace=wrap;html=1;" parent="1" vertex="1">
                    <mxGeometry x="280" y="750" width="120" height="60" as="geometry"/>
                </mxCell>
                <mxCell id="PUVHWLvWs5wMUMgaZp93-9" value="Exposed to HA&lt;br&gt;Implement HA Entity" style="text;html=1;strokeColor=none;fillColor=none;align=center;verticalAlign=middle;whiteSpace=wrap;rounded=0;" parent="1" vertex="1">
                    <mxGeometry x="80" y="840" width="160" height="120" as="geometry"/>
                </mxCell>
                <mxCell id="g-8kqiGf2P7mFbfdL2sW-4" value="Override &lt;font face=&quot;Cascadia Code&quot;&gt;poll&lt;/font&gt; and &lt;font face=&quot;Cascadia Code&quot;&gt;command&lt;/font&gt; and execute via debouncer and offer additional update" style="text;html=1;strokeColor=none;fillColor=none;align=center;verticalAlign=middle;whiteSpace=wrap;rounded=0;" parent="1" vertex="1">
                    <mxGeometry x="80" y="480" width="160" height="120" as="geometry"/>
                </mxCell>
                <mxCell id="g-8kqiGf2P7mFbfdL2sW-5" value="Implement common HA parts." style="text;html=1;strokeColor=none;fillColor=none;align=center;verticalAlign=middle;whiteSpace=wrap;rounded=0;" parent="1" vertex="1">
                    <mxGeometry x="80" y="720" width="160" height="120" as="geometry"/>
                </mxCell>
                <mxCell id="g-8kqiGf2P7mFbfdL2sW-18" value="AqmVirtualSensor,&lt;br&gt;StmVirtualLight..." style="rounded=0;whiteSpace=wrap;html=1;" parent="1" vertex="1">
                    <mxGeometry x="440" y="870" width="120" height="60" as="geometry"/>
                </mxCell>
                <mxCell id="g-8kqiGf2P7mFbfdL2sW-20" style="edgeStyle=none;rounded=0;orthogonalLoop=1;jettySize=auto;html=1;endArrow=block;endFill=0;" parent="1" source="PUVHWLvWs5wMUMgaZp93-6" target="PUVHWLvWs5wMUMgaZp93-2" edge="1">
                    <mxGeometry relative="1" as="geometry">
                        <mxPoint x="490.0000000000002" y="520" as="sourcePoint"/>
                        <mxPoint x="450.0000000000002" y="460" as="targetPoint"/>
                    </mxGeometry>
                </mxCell>
                <mxCell id="g-8kqiGf2P7mFbfdL2sW-24" value="" style="endArrow=diamondThin;html=1;rounded=0;endFill=1;" parent="1" source="PUVHWLvWs5wMUMgaZp93-6" target="g-8kqiGf2P7mFbfdL2sW-18" edge="1">
                    <mxGeometry relative="1" as="geometry">
                        <mxPoint x="510" y="650" as="sourcePoint"/>
                        <mxPoint x="670" y="650" as="targetPoint"/>
                    </mxGeometry>
                </mxCell>
                <mxCell id="g-8kqiGf2P7mFbfdL2sW-25" value="1" style="resizable=0;html=1;align=left;verticalAlign=bottom;" parent="g-8kqiGf2P7mFbfdL2sW-24" connectable="0" vertex="1">
                    <mxGeometry x="-1" relative="1" as="geometry">
                        <mxPoint y="20" as="offset"/>
                    </mxGeometry>
                </mxCell>
                <mxCell id="g-8kqiGf2P7mFbfdL2sW-26" value="n" style="resizable=0;html=1;align=right;verticalAlign=bottom;" parent="g-8kqiGf2P7mFbfdL2sW-24" connectable="0" vertex="1">
                    <mxGeometry x="1" relative="1" as="geometry">
                        <mxPoint x="10" as="offset"/>
                    </mxGeometry>
                </mxCell>
                <mxCell id="g-8kqiGf2P7mFbfdL2sW-29" value="Implement &lt;font face=&quot;Cascadia Code&quot;&gt;SihasProxy&lt;/font&gt;" style="text;html=1;strokeColor=none;fillColor=none;align=center;verticalAlign=middle;whiteSpace=wrap;rounded=0;" parent="1" vertex="1">
                    <mxGeometry x="80" y="600" width="160" height="120" as="geometry"/>
                </mxCell>
            </root>
        </mxGraphModel>
    </diagram>
    <diagram id="TkazggoqOE3rfxbfafaw" name="flow">
        <mxGraphModel dx="1562" dy="731" grid="1" gridSize="10" guides="1" tooltips="1" connect="1" arrows="1" fold="1" page="1" pageScale="1" pageWidth="827" pageHeight="1169" math="0" shadow="0">
            <root>
                <mxCell id="F2_ap_J7Vyg9NECqlOn8-0"/>
                <mxCell id="F2_ap_J7Vyg9NECqlOn8-1" parent="F2_ap_J7Vyg9NECqlOn8-0"/>
                <mxCell id="f-GslC3KZLwVlhwGm8x5-3" style="edgeStyle=none;html=1;fontSize=24;" parent="F2_ap_J7Vyg9NECqlOn8-1" source="f-GslC3KZLwVlhwGm8x5-0" target="f-GslC3KZLwVlhwGm8x5-2" edge="1">
                    <mxGeometry relative="1" as="geometry"/>
                </mxCell>
                <mxCell id="f-GslC3KZLwVlhwGm8x5-6" style="edgeStyle=none;html=1;fontSize=24;" parent="F2_ap_J7Vyg9NECqlOn8-1" source="f-GslC3KZLwVlhwGm8x5-0" target="f-GslC3KZLwVlhwGm8x5-4" edge="1">
                    <mxGeometry relative="1" as="geometry"/>
                </mxCell>
                <mxCell id="f-GslC3KZLwVlhwGm8x5-0" value="Component loaded" style="rounded=0;whiteSpace=wrap;html=1;" parent="F2_ap_J7Vyg9NECqlOn8-1" vertex="1">
                    <mxGeometry x="200" y="110" width="120" height="60" as="geometry"/>
                </mxCell>
                <mxCell id="f-GslC3KZLwVlhwGm8x5-1" value="Device Discovery Flow" style="text;html=1;align=center;verticalAlign=middle;resizable=0;points=[];autosize=1;strokeColor=none;fillColor=none;fontSize=24;fontStyle=5" parent="F2_ap_J7Vyg9NECqlOn8-1" vertex="1">
                    <mxGeometry x="120" y="50" width="280" height="30" as="geometry"/>
                </mxCell>
                <mxCell id="f-GslC3KZLwVlhwGm8x5-9" style="edgeStyle=none;html=1;fontSize=24;" parent="F2_ap_J7Vyg9NECqlOn8-1" source="f-GslC3KZLwVlhwGm8x5-2" target="f-GslC3KZLwVlhwGm8x5-7" edge="1">
                    <mxGeometry relative="1" as="geometry"/>
                </mxCell>
                <mxCell id="f-GslC3KZLwVlhwGm8x5-2" value="Listen DHCP" style="rounded=0;whiteSpace=wrap;html=1;" parent="F2_ap_J7Vyg9NECqlOn8-1" vertex="1">
                    <mxGeometry x="120" y="230" width="120" height="60" as="geometry"/>
                </mxCell>
                <mxCell id="f-GslC3KZLwVlhwGm8x5-8" style="edgeStyle=none;html=1;fontSize=24;" parent="F2_ap_J7Vyg9NECqlOn8-1" source="f-GslC3KZLwVlhwGm8x5-4" target="f-GslC3KZLwVlhwGm8x5-7" edge="1">
                    <mxGeometry relative="1" as="geometry"/>
                </mxCell>
                <mxCell id="f-GslC3KZLwVlhwGm8x5-4" value="Listen mDNS" style="rounded=0;whiteSpace=wrap;html=1;" parent="F2_ap_J7Vyg9NECqlOn8-1" vertex="1">
                    <mxGeometry x="280" y="230" width="120" height="60" as="geometry"/>
                </mxCell>
                <mxCell id="f-GslC3KZLwVlhwGm8x5-11" style="edgeStyle=none;html=1;fontSize=24;" parent="F2_ap_J7Vyg9NECqlOn8-1" source="f-GslC3KZLwVlhwGm8x5-7" target="f-GslC3KZLwVlhwGm8x5-13" edge="1">
                    <mxGeometry relative="1" as="geometry">
                        <mxPoint x="260" y="470" as="targetPoint"/>
                    </mxGeometry>
                </mxCell>
                <mxCell id="f-GslC3KZLwVlhwGm8x5-7" value="Get Device Info" style="rounded=0;whiteSpace=wrap;html=1;" parent="F2_ap_J7Vyg9NECqlOn8-1" vertex="1">
                    <mxGeometry x="200" y="350" width="120" height="60" as="geometry"/>
                </mxCell>
                <mxCell id="f-GslC3KZLwVlhwGm8x5-15" value="n" style="edgeStyle=none;html=1;fontSize=12;" parent="F2_ap_J7Vyg9NECqlOn8-1" source="f-GslC3KZLwVlhwGm8x5-13" target="f-GslC3KZLwVlhwGm8x5-36" edge="1">
                    <mxGeometry relative="1" as="geometry">
                        <mxPoint x="360" y="500" as="targetPoint"/>
                    </mxGeometry>
                </mxCell>
                <mxCell id="f-GslC3KZLwVlhwGm8x5-13" value="&lt;font style=&quot;font-size: 12px&quot;&gt;Is already exist&lt;/font&gt;" style="rhombus;whiteSpace=wrap;html=1;fontSize=24;" parent="F2_ap_J7Vyg9NECqlOn8-1" vertex="1">
                    <mxGeometry x="200" y="460" width="120" height="80" as="geometry"/>
                </mxCell>
                <mxCell id="f-GslC3KZLwVlhwGm8x5-19" style="edgeStyle=elbowEdgeStyle;html=1;fontSize=12;elbow=vertical;" parent="F2_ap_J7Vyg9NECqlOn8-1" source="f-GslC3KZLwVlhwGm8x5-36" target="f-GslC3KZLwVlhwGm8x5-16" edge="1">
                    <mxGeometry relative="1" as="geometry">
                        <mxPoint x="420" y="530" as="sourcePoint"/>
                    </mxGeometry>
                </mxCell>
                <mxCell id="f-GslC3KZLwVlhwGm8x5-16" value="end" style="ellipse;whiteSpace=wrap;html=1;aspect=fixed;fontSize=12;" parent="F2_ap_J7Vyg9NECqlOn8-1" vertex="1">
                    <mxGeometry x="220" y="590" width="80" height="80" as="geometry"/>
                </mxCell>
                <mxCell id="f-GslC3KZLwVlhwGm8x5-17" value="y" style="edgeStyle=none;html=1;fontSize=12;" parent="F2_ap_J7Vyg9NECqlOn8-1" source="f-GslC3KZLwVlhwGm8x5-13" target="f-GslC3KZLwVlhwGm8x5-16" edge="1">
                    <mxGeometry relative="1" as="geometry"/>
                </mxCell>
                <mxCell id="f-GslC3KZLwVlhwGm8x5-41" style="edgeStyle=elbowEdgeStyle;elbow=vertical;html=1;fontSize=12;" parent="F2_ap_J7Vyg9NECqlOn8-1" source="f-GslC3KZLwVlhwGm8x5-22" target="f-GslC3KZLwVlhwGm8x5-31" edge="1">
                    <mxGeometry relative="1" as="geometry"/>
                </mxCell>
                <mxCell id="f-GslC3KZLwVlhwGm8x5-22" value="Entity loaded&lt;br&gt;&amp;amp;&lt;br&gt;initialized" style="rounded=0;whiteSpace=wrap;html=1;" parent="F2_ap_J7Vyg9NECqlOn8-1" vertex="1">
                    <mxGeometry x="680" y="110" width="120" height="60" as="geometry"/>
                </mxCell>
                <mxCell id="f-GslC3KZLwVlhwGm8x5-23" value="Offline Handle Flow" style="text;html=1;align=center;verticalAlign=middle;resizable=0;points=[];autosize=1;strokeColor=none;fillColor=none;fontSize=24;fontStyle=5" parent="F2_ap_J7Vyg9NECqlOn8-1" vertex="1">
                    <mxGeometry x="620" y="50" width="240" height="30" as="geometry"/>
                </mxCell>
                <mxCell id="f-GslC3KZLwVlhwGm8x5-44" style="edgeStyle=orthogonalEdgeStyle;elbow=vertical;html=1;fontSize=12;" parent="F2_ap_J7Vyg9NECqlOn8-1" source="f-GslC3KZLwVlhwGm8x5-25" edge="1">
                    <mxGeometry relative="1" as="geometry">
                        <mxPoint x="740" y="200" as="targetPoint"/>
                        <Array as="points">
                            <mxPoint x="660" y="430"/>
                            <mxPoint x="660" y="200"/>
                        </Array>
                    </mxGeometry>
                </mxCell>
                <mxCell id="f-GslC3KZLwVlhwGm8x5-25" value="Wait 30 sec" style="rounded=0;whiteSpace=wrap;html=1;" parent="F2_ap_J7Vyg9NECqlOn8-1" vertex="1">
                    <mxGeometry x="680" y="400" width="120" height="60" as="geometry"/>
                </mxCell>
                <mxCell id="f-GslC3KZLwVlhwGm8x5-30" value="y" style="edgeStyle=none;html=1;fontSize=12;" parent="F2_ap_J7Vyg9NECqlOn8-1" source="f-GslC3KZLwVlhwGm8x5-31" target="f-GslC3KZLwVlhwGm8x5-38" edge="1">
                    <mxGeometry relative="1" as="geometry">
                        <mxPoint x="840" y="270" as="targetPoint"/>
                    </mxGeometry>
                </mxCell>
                <mxCell id="f-GslC3KZLwVlhwGm8x5-31" value="&lt;font style=&quot;font-size: 12px&quot;&gt;Is offline&lt;/font&gt;" style="rhombus;whiteSpace=wrap;html=1;fontSize=24;" parent="F2_ap_J7Vyg9NECqlOn8-1" vertex="1">
                    <mxGeometry x="680" y="230" width="120" height="80" as="geometry"/>
                </mxCell>
                <mxCell id="f-GslC3KZLwVlhwGm8x5-32" style="edgeStyle=elbowEdgeStyle;html=1;fontSize=12;elbow=vertical;" parent="F2_ap_J7Vyg9NECqlOn8-1" source="f-GslC3KZLwVlhwGm8x5-38" target="f-GslC3KZLwVlhwGm8x5-25" edge="1">
                    <mxGeometry relative="1" as="geometry">
                        <mxPoint x="900" y="300" as="sourcePoint"/>
                        <mxPoint x="740" y="360" as="targetPoint"/>
                    </mxGeometry>
                </mxCell>
                <mxCell id="f-GslC3KZLwVlhwGm8x5-36" value="&lt;span&gt;Add device&lt;/span&gt;" style="shape=process;whiteSpace=wrap;html=1;backgroundOutline=1;fontSize=12;" parent="F2_ap_J7Vyg9NECqlOn8-1" vertex="1">
                    <mxGeometry x="360" y="470" width="120" height="60" as="geometry"/>
                </mxCell>
                <mxCell id="f-GslC3KZLwVlhwGm8x5-38" value="&lt;span&gt;Advertise&lt;/span&gt;" style="shape=process;whiteSpace=wrap;html=1;backgroundOutline=1;fontSize=12;" parent="F2_ap_J7Vyg9NECqlOn8-1" vertex="1">
                    <mxGeometry x="840" y="240" width="120" height="60" as="geometry"/>
                </mxCell>
                <mxCell id="f-GslC3KZLwVlhwGm8x5-39" value="Advertise" style="text;html=1;align=center;verticalAlign=middle;resizable=0;points=[];autosize=1;strokeColor=none;fillColor=none;fontSize=24;fontStyle=5" parent="F2_ap_J7Vyg9NECqlOn8-1" vertex="1">
                    <mxGeometry x="1100" y="50" width="120" height="30" as="geometry"/>
                </mxCell>
                <mxCell id="f-GslC3KZLwVlhwGm8x5-42" value="n" style="edgeStyle=elbowEdgeStyle;elbow=vertical;html=1;fontSize=12;" parent="F2_ap_J7Vyg9NECqlOn8-1" source="f-GslC3KZLwVlhwGm8x5-31" target="f-GslC3KZLwVlhwGm8x5-25" edge="1">
                    <mxGeometry relative="1" as="geometry"/>
                </mxCell>
            </root>
        </mxGraphModel>
    </diagram>
    <diagram id="-vyXkM-3VMKaBMix5Bc-" name="페이지-3">
        <mxGraphModel dx="1571" dy="348" grid="1" gridSize="10" guides="1" tooltips="1" connect="1" arrows="1" fold="1" page="1" pageScale="1" pageWidth="827" pageHeight="1169" math="0" shadow="0">
            <root>
                <mxCell id="YZk-ySpJgLtMHAmoHPbV-0"/>
                <mxCell id="YZk-ySpJgLtMHAmoHPbV-1" parent="YZk-ySpJgLtMHAmoHPbV-0"/>
                <mxCell id="YZk-ySpJgLtMHAmoHPbV-2" value="Integration" style="rounded=0;whiteSpace=wrap;html=1;" vertex="1" parent="YZk-ySpJgLtMHAmoHPbV-1">
                    <mxGeometry x="360" y="150" width="120" height="60" as="geometry"/>
                </mxCell>
                <mxCell id="UtbJimVSdnh1RKxqQEhQ-0" value="Integration Platforms" style="rounded=0;whiteSpace=wrap;html=1;" vertex="1" parent="YZk-ySpJgLtMHAmoHPbV-1">
                    <mxGeometry x="360" y="270" width="120" height="60" as="geometry"/>
                </mxCell>
                <mxCell id="UtbJimVSdnh1RKxqQEhQ-1" value="You write" style="text;html=1;strokeColor=none;fillColor=none;align=center;verticalAlign=middle;rounded=0;fontSize=24;fontStyle=4" vertex="1" parent="YZk-ySpJgLtMHAmoHPbV-1">
                    <mxGeometry x="390" y="50" width="60" height="30" as="geometry"/>
                </mxCell>
                <mxCell id="UtbJimVSdnh1RKxqQEhQ-2" value="Built in" style="text;html=1;strokeColor=none;fillColor=none;align=center;verticalAlign=middle;rounded=0;fontSize=24;fontStyle=4" vertex="1" parent="YZk-ySpJgLtMHAmoHPbV-1">
                    <mxGeometry x="590" y="50" width="60" height="30" as="geometry"/>
                </mxCell>
                <mxCell id="UtbJimVSdnh1RKxqQEhQ-3" value="Entity" style="rounded=0;whiteSpace=wrap;html=1;" vertex="1" parent="YZk-ySpJgLtMHAmoHPbV-1">
                    <mxGeometry x="880" y="270" width="120" height="60" as="geometry"/>
                </mxCell>
                <mxCell id="UtbJimVSdnh1RKxqQEhQ-7" style="edgeStyle=none;html=1;fontSize=24;endArrow=block;endFill=1;" edge="1" parent="YZk-ySpJgLtMHAmoHPbV-1" source="UtbJimVSdnh1RKxqQEhQ-4" target="UtbJimVSdnh1RKxqQEhQ-3">
                    <mxGeometry relative="1" as="geometry"/>
                </mxCell>
                <mxCell id="UtbJimVSdnh1RKxqQEhQ-4" value="Light" style="rounded=0;whiteSpace=wrap;html=1;" vertex="1" parent="YZk-ySpJgLtMHAmoHPbV-1">
                    <mxGeometry x="720" y="190" width="120" height="60" as="geometry"/>
                </mxCell>
                <mxCell id="UtbJimVSdnh1RKxqQEhQ-8" style="edgeStyle=none;html=1;fontSize=24;endArrow=block;endFill=1;" edge="1" parent="YZk-ySpJgLtMHAmoHPbV-1" source="UtbJimVSdnh1RKxqQEhQ-5" target="UtbJimVSdnh1RKxqQEhQ-3">
                    <mxGeometry relative="1" as="geometry"/>
                </mxCell>
                <mxCell id="UtbJimVSdnh1RKxqQEhQ-5" value="Sensor" style="rounded=0;whiteSpace=wrap;html=1;" vertex="1" parent="YZk-ySpJgLtMHAmoHPbV-1">
                    <mxGeometry x="720" y="270" width="120" height="60" as="geometry"/>
                </mxCell>
                <mxCell id="UtbJimVSdnh1RKxqQEhQ-9" style="edgeStyle=none;html=1;fontSize=24;endArrow=block;endFill=1;" edge="1" parent="YZk-ySpJgLtMHAmoHPbV-1" source="UtbJimVSdnh1RKxqQEhQ-6" target="UtbJimVSdnh1RKxqQEhQ-3">
                    <mxGeometry relative="1" as="geometry"/>
                </mxCell>
                <mxCell id="UtbJimVSdnh1RKxqQEhQ-6" value="Light" style="rounded=0;whiteSpace=wrap;html=1;" vertex="1" parent="YZk-ySpJgLtMHAmoHPbV-1">
                    <mxGeometry x="720" y="350" width="120" height="60" as="geometry"/>
                </mxCell>
                <mxCell id="UtbJimVSdnh1RKxqQEhQ-10" value="Config Entry&lt;br&gt;&lt;i&gt;&lt;font style=&quot;font-size: 9px&quot; color=&quot;#b3b3b3&quot;&gt;설정 데이터&lt;/font&gt;&lt;/i&gt;" style="rounded=0;whiteSpace=wrap;html=1;" vertex="1" parent="YZk-ySpJgLtMHAmoHPbV-1">
                    <mxGeometry x="-70" y="130" width="120" height="60" as="geometry"/>
                </mxCell>
                <mxCell id="UtbJimVSdnh1RKxqQEhQ-12" value="상속" style="edgeStyle=none;html=1;fontSize=9;fontColor=#B3B3B3;endArrow=block;endFill=1;" edge="1" parent="YZk-ySpJgLtMHAmoHPbV-1" source="UtbJimVSdnh1RKxqQEhQ-11" target="UtbJimVSdnh1RKxqQEhQ-4">
                    <mxGeometry relative="1" as="geometry"/>
                </mxCell>
                <mxCell id="UtbJimVSdnh1RKxqQEhQ-11" value="MyLight" style="rounded=0;whiteSpace=wrap;html=1;" vertex="1" parent="YZk-ySpJgLtMHAmoHPbV-1">
                    <mxGeometry x="360" y="390" width="120" height="60" as="geometry"/>
                </mxCell>
                <mxCell id="UtbJimVSdnh1RKxqQEhQ-22" style="edgeStyle=none;html=1;fontFamily=Helvetica;fontSize=9;fontColor=#B3B3B3;endArrow=block;endFill=1;" edge="1" parent="YZk-ySpJgLtMHAmoHPbV-1" source="UtbJimVSdnh1RKxqQEhQ-13" target="UtbJimVSdnh1RKxqQEhQ-19">
                    <mxGeometry relative="1" as="geometry"/>
                </mxCell>
                <mxCell id="UtbJimVSdnh1RKxqQEhQ-13" value="Startup" style="rounded=0;whiteSpace=wrap;html=1;" vertex="1" parent="YZk-ySpJgLtMHAmoHPbV-1">
                    <mxGeometry x="-240" y="150" width="120" height="60" as="geometry"/>
                </mxCell>
                <mxCell id="UtbJimVSdnh1RKxqQEhQ-18" value="&lt;span style=&quot;font-family: &amp;#34;helvetica&amp;#34; ; font-size: 12px&quot;&gt;?ent setup&lt;/span&gt;&lt;br style=&quot;font-family: &amp;#34;helvetica&amp;#34; ; font-size: 12px&quot;&gt;&lt;font color=&quot;#b3b3b3&quot;&gt;&lt;i&gt;setup_entry(hass, entry)&lt;/i&gt;&lt;/font&gt;" style="rounded=0;whiteSpace=wrap;html=1;fontSize=9;fontFamily=Lucida Console;" vertex="1" parent="YZk-ySpJgLtMHAmoHPbV-1">
                    <mxGeometry x="-240" y="390" width="120" height="60" as="geometry"/>
                </mxCell>
                <mxCell id="UtbJimVSdnh1RKxqQEhQ-23" style="edgeStyle=none;html=1;fontFamily=Helvetica;fontSize=9;fontColor=#B3B3B3;endArrow=block;endFill=1;" edge="1" parent="YZk-ySpJgLtMHAmoHPbV-1" source="UtbJimVSdnh1RKxqQEhQ-19" target="UtbJimVSdnh1RKxqQEhQ-18">
                    <mxGeometry relative="1" as="geometry"/>
                </mxCell>
                <mxCell id="UtbJimVSdnh1RKxqQEhQ-19" value="Component setup&lt;br&gt;&lt;i&gt;&lt;font style=&quot;font-size: 9px&quot; color=&quot;#b3b3b3&quot; face=&quot;Lucida Console&quot;&gt;setup()&lt;/font&gt;&lt;/i&gt;" style="rounded=0;whiteSpace=wrap;html=1;" vertex="1" parent="YZk-ySpJgLtMHAmoHPbV-1">
                    <mxGeometry x="-240" y="270" width="120" height="60" as="geometry"/>
                </mxCell>
                <mxCell id="UtbJimVSdnh1RKxqQEhQ-24" value="" style="whiteSpace=wrap;html=1;fontFamily=Helvetica;fontSize=9;fontColor=#B3B3B3;" vertex="1" parent="YZk-ySpJgLtMHAmoHPbV-1">
                    <mxGeometry x="-110" y="280" width="120" height="60" as="geometry"/>
                </mxCell>
            </root>
        </mxGraphModel>
    </diagram>
</mxfile>